<svg xmlns="http://www.w3.org/2000/svg" width="423.781" height="126" viewBox="0 0 423.781 126">
  <defs>
    <style>
      .cls-1 {
        fill: #ae1010;
      }

      .cls-1, .cls-2, .cls-3 {
        fill-rule: evenodd;
      }

      .cls-2 {
        fill: #fff;
      }

      .cls-3 {
        fill: #8d8d8d;
        opacity: 0.8;
      }
    </style>
  </defs>
  <path class="cls-1" d="M96.613,40.377V8.046A8.07,8.07,0,0,0,88.566,0H66.033a8.07,8.07,0,0,0-8.047,8.046v51.2C57.985,71.224,63.213,79,75.543,79h53.406c0.163,0,.326-0.006.488-0.015C111.313,75.292,96.613,66.166,96.613,40.377ZM137,70.953V48.424a8.07,8.07,0,0,0-8.047-8.046H96.613c0,25.789,14.7,34.914,32.824,38.607a8.077,8.077,0,0,0,7.552-7.684C136.994,71.185,137,71.069,137,70.953Z"/>
  <path class="cls-2" d="M94.934,93.2a12.438,12.438,0,0,0-2.872-4.208,12.252,12.252,0,0,0-3.695-2.438,12.685,12.685,0,0,0-5.153-1.1l-18.651.02c-0.289.023-.608-0.043-0.9-0.02H49.88a3.526,3.526,0,0,0-3.43,3.52A3.409,3.409,0,0,0,49.839,92.4h1.344l0.023,0H83.245a5.953,5.953,0,0,1,5.916,5.983v20.7H70.134a5.961,5.961,0,0,1-5.918-5.983V97.6H57.37V113.1a12.856,12.856,0,0,0,12.764,12.913H96.01V98.381A12.916,12.916,0,0,0,94.934,93.2ZM33.989,55.632A3.406,3.406,0,0,0,30.6,52.2H3.962a3.427,3.427,0,0,0,0,6.854H30.6A3.407,3.407,0,0,0,33.989,55.632ZM23.613,71.987A3.366,3.366,0,0,0,20.266,68.6H8.62a3.385,3.385,0,0,0,0,6.77H20.266A3.367,3.367,0,0,0,23.613,71.987ZM36.676,85.582H34.154a3.386,3.386,0,0,0,0,6.772h2.522A3.386,3.386,0,0,0,36.676,85.582ZM3.395,46.869H5.212a3.428,3.428,0,0,0,0-6.856H3.395A3.428,3.428,0,0,0,3.395,46.869ZM44.407,75.426l6.914,0.024V53.992a13.077,13.077,0,0,0-3.7-10.208,12.714,12.714,0,0,0-9.054-3.75l-10.976-.021H16.724a3.428,3.428,0,0,0,0,6.856H27.587v0.038h10.9a5.955,5.955,0,0,1,5.916,5.983V68.559H33.19a3.429,3.429,0,0,0,0,6.858H44.407v0.008Z"/>
  <path id="IDHAYALAYA " class="cls-2" d="M161.787,71.281h6.784l0.672-34.714,7.15,34.715h5.44l7.028-34.592,0.733,34.592h6.723L195.4,21.513h-9.106l-7.273,34.469-7.028-34.469h-9.351Zm41.864,0h20.9V65.075H212.635V48.548h9.29V42.219h-9.29V27.9h11.8v-6.39H203.651V71.281Zm26.157,0h12.04a19.863,19.863,0,0,0,9.106-1.751,10.052,10.052,0,0,0,4.8-5.253,24.478,24.478,0,0,0,1.436-9.155V37a22.875,22.875,0,0,0-1.436-8.878,9.551,9.551,0,0,0-4.859-4.977,22.3,22.3,0,0,0-9.412-1.628H229.808V71.281Zm8.984-6.329V27.965h2.689a8.613,8.613,0,0,1,4.309.829,3.948,3.948,0,0,1,1.8,2.55,22.315,22.315,0,0,1,.428,5.038V55.429a31.186,31.186,0,0,1-.367,5.56,4.681,4.681,0,0,1-1.711,2.918,7.123,7.123,0,0,1-4.339,1.044h-2.812Zm25.3,6.329h8.923V21.513h-8.923V71.281Zm16.562,0h8.984V49.162h4.95q13.262,0,13.262-13.517,0-14.131-12.651-14.131H280.656V71.281Zm8.984-28.509V27.9h3.484a8.05,8.05,0,0,1,4.064.8,3.844,3.844,0,0,1,1.742,2.366,18.232,18.232,0,0,1,.427,4.516q0,4.055-1.283,5.622t-4.95,1.567H289.64Zm23.224,28.509h21.023V65.075H321.848V21.513h-8.984V71.281Zm38.808,0.676q5.377,0,8.434-1.966a10.364,10.364,0,0,0,4.278-5.622,29.363,29.363,0,0,0,1.222-9.186V21.513h-8.739V56.228a17.268,17.268,0,0,1-1.009,6.636Q354.85,65.2,351.672,65.2q-3.117,0-4.125-2.335a17.268,17.268,0,0,1-1.009-6.636V21.513h-8.8v33.67A29.272,29.272,0,0,0,338.96,64.4a10.351,10.351,0,0,0,4.278,5.591q3.055,1.966,8.434,1.966h0Zm33.491,0a13.082,13.082,0,0,0,6.478-1.567,11.142,11.142,0,0,0,4.37-4.332,12.663,12.663,0,0,0,1.559-6.328,15.9,15.9,0,0,0-1.956-7.987,24.817,24.817,0,0,0-5.439-6.451L384,39.823a14.358,14.358,0,0,1-3.087-3.471,7.883,7.883,0,0,1-.947-4.024,5.059,5.059,0,0,1,1.1-3.349,3.762,3.762,0,0,1,3.056-1.321,3.671,3.671,0,0,1,3.7,2.058,17.126,17.126,0,0,1,1.13,6.113l7.762-1.352q-0.429-6.205-3.209-9.861t-9.2-3.656q-5.99,0-9.381,3.226t-3.392,9.063a14.764,14.764,0,0,0,1.436,6.758,17.367,17.367,0,0,0,4.309,5.284l6.234,5.468a22.245,22.245,0,0,1,4.125,4.516,9.117,9.117,0,0,1,1.314,5.007,5.3,5.3,0,0,1-1.008,3.41,3.716,3.716,0,0,1-3.087,1.26,4.359,4.359,0,0,1-4.125-2.488,17.283,17.283,0,0,1-1.5-7.219l-7.762,1.536q0.3,7.557,3.636,11.367t10.054,3.809h0Zm17.723-.676h20.9V65.075H411.87V48.548h9.29V42.219h-9.29V27.9h11.8v-6.39H402.886V71.281Z"/>
  <path id="Healthy_Heart_Beats" data-name="Healthy Heart Beats" class="cls-3" d="M173.991,94.33H165.73V87.919h-2.139v14.819h2.139V96.1h8.261v6.642h2.139V87.919h-2.139V94.33Zm16.439,8.408v-1.744h-7.486V96.1h7.067V94.33h-7.067V89.664h7.486V87.919h-9.6v14.819h9.6Zm17.11,0-6.584-14.819h-1.8l-6.584,14.819h2.18l1.573-3.657h7.486l1.572,3.657h2.16Zm-7.465-12.4,3,7.021h-6.018Zm19.982,12.4V100.93h-7.171V87.919h-2.159v14.819h9.33Zm6.479,0V89.727h5.012V87.919H219.365v1.808h4.991v13.011h2.18Zm18.641-8.408h-8.262V87.919h-2.138v14.819h2.138V96.1h8.262v6.642h2.138V87.919h-2.138V94.33Zm16.04-6.411-4.508,6.117L252.2,87.919h-2.474l5.892,7.9v6.915h2.159V95.823l5.892-7.9h-2.453Zm22.058,6.411h-8.262V87.919h-2.138v14.819h2.138V96.1h8.262v6.642h2.138V87.919h-2.138V94.33Zm16.438,8.408v-1.744h-7.485V96.1h7.066V94.33h-7.066V89.664h7.485V87.919h-9.6v14.819h9.6Zm17.11,0-6.584-14.819h-1.8l-6.584,14.819h2.181l1.572-3.657h7.486l1.573,3.657h2.159Zm-7.464-12.4,3,7.021h-6.018Zm20.108,7.693a3.172,3.172,0,0,0-1.8-1.639A4.43,4.43,0,0,0,330.379,95a4.1,4.1,0,0,0,.954-2.8,3.954,3.954,0,0,0-1.29-3.2,5.641,5.641,0,0,0-3.742-1.093H320.01v14.819h2.139V96.622h2.432a3.257,3.257,0,0,1,1.52.3,2.532,2.532,0,0,1,1,1.061l2.516,4.75H332Zm-7.339-3.153V89.664h3.921a3.881,3.881,0,0,1,2.432.62,2.367,2.367,0,0,1,.776,1.965,2.413,2.413,0,0,1-.786,1.986,3.792,3.792,0,0,1-2.422.641h-3.921Zm18.892,7.861V89.727h5.011V87.919H333.849v1.808h4.99v13.011h2.181Zm23.735-7.63a3.652,3.652,0,0,0,1.73-1.282,3.74,3.74,0,0,0-.671-4.887,5.626,5.626,0,0,0-3.575-1.02h-6.185v14.819h6.416a5.671,5.671,0,0,0,3.659-1.061,3.615,3.615,0,0,0,1.31-2.975,3.714,3.714,0,0,0-.7-2.312,3.625,3.625,0,0,0-1.982-1.282h0Zm-6.584-5.444H361.9a3.928,3.928,0,0,1,2.338.568,2.03,2.03,0,0,1,.765,1.745q0,2.354-3.1,2.354h-3.733V89.664Zm4.068,11.33h-4.068V96.075h4.068a3.714,3.714,0,0,1,2.359.62,2.278,2.278,0,0,1,.765,1.881,2.172,2.172,0,0,1-.755,1.829,3.854,3.854,0,0,1-2.369.589h0Zm18.892,1.744v-1.744h-7.486V96.1h7.067V94.33h-7.067V89.664h7.486V87.919h-9.6v14.819h9.6Zm17.11,0-6.584-14.819h-1.8l-6.584,14.819h2.18l1.573-3.657h7.486l1.572,3.657h2.16Zm-7.465-12.4,3,7.021h-6.018Zm14.573,12.4V89.727h5.011V87.919H398.178v1.808h4.99v13.011h2.181Zm12.6,0.168a7.836,7.836,0,0,0,3.008-.525,4.345,4.345,0,0,0,1.951-1.493,3.8,3.8,0,0,0,.681-2.249,3.023,3.023,0,0,0-.681-2.049,4.6,4.6,0,0,0-1.825-1.24,21.17,21.17,0,0,0-2.988-.872,8.648,8.648,0,0,1-2.558-.935,1.7,1.7,0,0,1-.8-1.524,2.145,2.145,0,0,1,.912-1.839,4.19,4.19,0,0,1,2.505-.662,6.414,6.414,0,0,1,2.3.41,7.618,7.618,0,0,1,2.108,1.251l0.754-1.6a5.778,5.778,0,0,0-2.254-1.356,8.916,8.916,0,0,0-2.925-.473,7.144,7.144,0,0,0-2.914.557,4.5,4.5,0,0,0-1.94,1.545,3.938,3.938,0,0,0-.681,2.291,3.363,3.363,0,0,0,.639,2.112,4.318,4.318,0,0,0,1.772,1.314,16.121,16.121,0,0,0,2.894.862,10.654,10.654,0,0,1,2.684.893,1.55,1.55,0,0,1,.838,1.44,2.007,2.007,0,0,1-.9,1.755,4.489,4.489,0,0,1-2.558.62,8.217,8.217,0,0,1-2.611-.389,7.22,7.22,0,0,1-2.254-1.272l-0.776,1.6a6.861,6.861,0,0,0,2.464,1.366,10.257,10.257,0,0,0,3.156.462h0Z"/>
</svg>
